<svg width="83" height="62" viewBox="0 0 83 62" fill="none" xmlns="http://www.w3.org/2000/svg">
<ellipse cx="41.4998" cy="31" rx="26.7742" ry="25.8333" fill="#DD88CF"/>
<path d="M53.5484 30.3542C53.553 32.059 53.1402 33.7408 52.3436 35.2625C51.399 37.086 49.9469 38.6198 48.15 39.692C46.353 40.7642 44.2822 41.3325 42.1694 41.3333C40.4025 41.3378 38.6594 40.9395 37.0823 40.1708L29.4517 42.625L31.9952 35.2625C31.1986 33.7408 30.7858 32.059 30.7904 30.3542C30.7912 28.3156 31.3802 26.3175 32.4915 24.5837C33.6028 22.8499 35.1924 21.4489 37.0823 20.5375C38.6594 19.7689 40.4025 19.3706 42.1694 19.375H42.8387C45.6291 19.5236 48.2646 20.6599 50.2406 22.5666C52.2167 24.4732 53.3945 27.0161 53.5484 29.7084V30.3542Z" fill="white" stroke="white" stroke-width="1.5" stroke-linecap="round" stroke-linejoin="round"/>
</svg>
