<svg width="62" height="48" viewBox="0 0 62 48" fill="none" xmlns="http://www.w3.org/2000/svg">
<g opacity="0.5">
<path d="M40.0001 23.5C40.0035 24.8199 39.6952 26.1219 39.1001 27.3C38.3945 28.7118 37.3098 29.8992 35.9675 30.7293C34.6252 31.5594 33.0783 31.9994 31.5001 32C30.1802 32.0034 28.8782 31.6951 27.7001 31.1L22.0001 33L23.9001 27.3C23.3051 26.1219 22.9967 24.8199 23.0001 23.5C23.0007 21.9218 23.4407 20.3749 24.2708 19.0326C25.1009 17.6903 26.2884 16.6056 27.7001 15.9C28.8782 15.305 30.1802 14.9966 31.5001 15H32.0001C34.0845 15.115 36.0531 15.9948 37.5292 17.4709C39.0053 18.947 39.8851 20.9157 40.0001 23V23.5Z" stroke="#4B164C" stroke-width="2" stroke-linecap="round" stroke-linejoin="round"/>
</g>
</svg>
